<?xml version="1.0" encoding="utf-8"?>
<!-- Generator: Adobe Illustrator 24.2.0, SVG Export Plug-In . SVG Version: 6.00 Build 0)  -->
<svg version="1.1" id="Layer_1" xmlns="http://www.w3.org/2000/svg" xmlns:xlink="http://www.w3.org/1999/xlink" x="0px" y="0px"
	 viewBox="0 0 671 595" enable-background="new 0 0 671 595" xml:space="preserve">
<g>
	<g>
		
			<radialGradient id="SVGID_1_" cx="1514.3932" cy="275.5169" r="1033.2054" gradientTransform="matrix(0.2615 0 0 0.2615 2.7199 148.8249)" gradientUnits="userSpaceOnUse">
			<stop  offset="0" style="stop-color:#FFFFFF"/>
			<stop  offset="1" style="stop-color:#CF9C51"/>
		</radialGradient>
		<path fill="url(#SVGID_1_)" d="M333.953,13.651C177.113,20.676,55.66,153.626,62.741,310.535
			c7.118,156.807,140.01,278.3,296.91,271.231c156.89-7.137,278.3-140.072,271.228-296.946
			C623.794,127.938,490.829,6.5,333.953,13.651L333.953,13.651z"/>
		
			<radialGradient id="SVGID_2_" cx="1441.5927" cy="240.3893" r="2280.4377" gradientTransform="matrix(0.2649 0 0 0.2649 -0.3119 149.2163)" gradientUnits="userSpaceOnUse">
			<stop  offset="0" style="stop-color:#00C0F3"/>
			<stop  offset="0.2191" style="stop-color:#0097D6"/>
			<stop  offset="0.2202" style="stop-color:#0097D6"/>
			<stop  offset="0.2835" style="stop-color:#0084C8"/>
			<stop  offset="0.3487" style="stop-color:#0076BE"/>
			<stop  offset="0.4169" style="stop-color:#006DB8"/>
			<stop  offset="0.4893" style="stop-color:#0068B4"/>
			<stop  offset="0.573" style="stop-color:#0066B3"/>
		</radialGradient>
		<path fill="url(#SVGID_2_)" d="M333.731,9.801C174.78,16.947,51.694,151.704,58.923,310.722
			c7.193,158.932,141.885,282.048,300.851,274.831c159.027-7.206,282.085-141.91,274.928-300.888
			C627.504,125.633,492.747,2.59,333.731,9.801L333.731,9.801z M367.499,289.42c51.283,47.198,79.309,72.672,79.309,72.672
			c90.312,75.162,59.5,143.91,24.905,167.837c-26.223,18.168-55.419,26.748-93.634,28.774c-3.401,0.543-9.747-1.479-10.02-7.539
			c-0.239-6.528,9.311-8.169,9.311-8.169c85.154-16.749,60.283-72.678,30.094-101.18c-12.63-12.008-131.261-114.405-131.261-114.405
			C163.019,229.987,172.09,153.96,172.09,153.96c5.462-93.587,87.398-116.762,149.368-111.413
			c7.273,0.636,11.281,5.03,10.018,11.096c-1.353,6.564-10.977,7.038-10.977,7.038c-19.726,1.234-37.358,3.215-50.769,12.263
			c-49.98,33.55-35.16,90.785,31.381,154.33c8.387,8.056,17.284,16.482,26.435,25.039
			C327.547,252.313,340.926,264.066,367.499,289.42z M328.846,531.356c0.516,9.107-21.678,13.12-47.047,10.58
			c-31.827-3.074-69.839-13.111-102.944-41.74c-30.453-26.351-49.292-62.56-58.476-94.316c-9.392-32.579-13.257-70.657,2.159-67.677
			c4.776,0.965,13.002,21.887,21.911,37.1c9.275,15.771,16.824,24.45,23.844,29.748c3.235,2.396,14.04-21.791,29.907-35.514
			c9.174-7.581,19.196-10.171,20.874,12.47c1.939,27.717-3.074,60.772,5.032,60.772c7.581,0,24.651-5.726,62.209-8.866
			c14.086-1.252,22.102,1.392,8.67,20.419c-6.765,9.42-15.685,22.801-36.966,38.083
			C289.874,522.222,328.176,518.699,328.846,531.356z M353.957,240.875c-2.403-9.313-2.965-21.147-1.041-36.148
			c4.052-31.467,12.533-46.268,22.16-70.63c12.982-32.719-18.633-51.906-13.413-63.972c7.114-16.279,29.713,4.432,54.957,5.886
			c21.71,1.272,34.721,0.201,51.598,2.404c22.448,2.994,49.275,10.615,61.234,24.664c10.943,12.812-5.773,28.468-25.917,18.698
			c-14.707-7.199-33.216-2.833-22.387,12.534c13.125,14.525,19.429,14.961,32.726,18.463c36.643,9.679,37.461,44.782,12.605,63.01
			c-28.286,20.713-56.928,12.141-68.387-28.5c-5.758-20.224-19.999-30.524-34.717-24.678c-14.535,5.606-5.896,32.304,5.147,57.003
			c22.18,56.565-32.866,54.691-39.306,53.967C359.905,267.408,353.957,240.875,353.957,240.875z"/>
	</g>
</g>
</svg>
